# xmcd
#
# Track frame offsets:
#	150
#	17435
#	41242
#	64640
#	91467
#	109767
#	118280
#	137667
#	158672
#
# Disc length: 2452 seconds
#
# Revision: 1
# Processed by: cddbd v1.5.2PL0 Copyright (c) Steve Scherf et al.
# Submitted via: CDex 1.50Beta5
#
DISCID=73099209
DTITLE=オフコース - I LOVE YOU
DYEAR=1985
DGENRE=Pop
TTITLE0=YES-YES-YES
TTITLE1=素敵なあなた
TTITLE2=愛のゆくえ
TTITLE3=哀しき街
TTITLE4=揺れる心
TTITLE5=きっと同じ
TTITLE6=かかえきれないほどの愛
TTITLE7=決して彼等のようではなく
TTITLE8=I LOVE YOU
EXTD=
EXTT0=
EXTT1=
EXTT2=
EXTT3=
EXTT4=
EXTT5=
EXTT6=
EXTT7=
EXTT8=
PLAYORDER=
